<?xml version="1.0" encoding="utf-8"?>
<!-- Generator: Adobe Illustrator 16.0.3, SVG Export Plug-In . SVG Version: 6.00 Build 0)  -->
<!DOCTYPE svg PUBLIC "-//W3C//DTD SVG 1.1//EN" "http://www.w3.org/Graphics/SVG/1.1/DTD/svg11.dtd">
<svg version="1.1" id="Capa_1" xmlns="http://www.w3.org/2000/svg" xmlns:xlink="http://www.w3.org/1999/xlink" x="0px" y="0px"
	 width="512px" height="512px" viewBox="0 0 512 512" enable-background="new 0 0 512 512" xml:space="preserve">
<g>
	<path fill-rule="evenodd" clip-rule="evenodd" fill="#FFFFFF" d="M175.747,171.276c1.642-1.19,2.597-3.299,3.242-5.885
		c0.541-2.172,2.218-4.096,3.539-6.03c1.432-2.096,3.578-2.8,6.007-2.313c2.228,0.447,3.821,2.063,4.236,4.109
		c0.464,2.288,0.598,4.834,0.095,7.094c-2.141,9.627-5.659,18.772-10.451,27.41c-2.213,3.989-4.393,7.999-6.701,11.932
		c-0.932,1.589-2.065,3.087-4.323,2.98c-0.319-0.015-0.93,0.904-0.988,1.438c-0.645,5.833-0.939,11.671,0.287,17.477
		c0.361,1.711,2.366,2.84,4.381,2.476c3.377-0.609,6.307-2.243,8.667-4.591c3.221-3.204,6.102-6.747,9.183-10.094
		c0.684-0.743,1.603-1.268,2.396-1.914c0.194-0.159,0.39-0.376,0.471-0.606c1.116-3.161,2.111-6.369,3.348-9.48
		c0.888-2.231,1.85-4.504,3.206-6.463c2.65-3.826,5.468-7.555,8.464-11.116c2.558-3.042,6.15-2.788,9.009-0.042
		c1.034,0.992,2.635,1.517,4.07,1.94c2.584,0.762,4.228,3.136,3.765,5.689c-1.307,7.19-2.592,14.384-3.838,21.585
		c-0.12,0.692,0.087,1.44,0.142,2.163c0.767-0.148,1.733-0.052,2.268-0.487c2.615-2.127,5.112-4.401,7.658-6.615
		c0.724-0.629,1.175-1.351,2.573-1.11c0.793,0.137,2.423-1.392,2.785-2.471c2.395-7.121,4.606-14.307,6.744-21.511
		c0.681-2.298,1.021-4.706,1.402-7.083c0.55-3.416,2.503-5.311,5.21-4.906c2.757,0.411,4.282,2.402,3.724,5.149
		c-0.451,2.221-1.111,4.402-1.75,6.581c-0.627,2.139-1.344,4.251-1.828,6.631c0.633-0.724,1.295-1.426,1.895-2.178
		c4.435-5.547,8.833-11.125,13.307-16.641c0.724-0.894,1.688-1.654,2.677-2.254c0.872-0.53,2.006-1.313,2.702,0.371
		c0.07,0.17,0.437,0.246,0.68,0.313c2.923,0.814,3.789,2.132,2.738,4.993c-1.355,3.688-3.588,7.14-4.401,10.918
		c-1.292,6.007-4.445,11.418-5.163,17.553c-0.037,0.312,0.074,0.643,0.155,1.272c6.523-2.896,11.032-7.944,15.7-12.743
		c4.586-4.715,8.997-9.601,13.252-14.16c-0.268,0.378-0.748,1.057-1.516,2.142c0.812-0.443,1.19-0.649,1.788-0.975
		c-0.145,0.365-0.165,0.55-0.267,0.658c-4.409,4.672-8.867,9.3-13.215,14.028c-1.299,1.414-2.294,3.106-3.429,4.67
		c0.171,0.209,0.34,0.419,0.51,0.629c2.14-0.738,4.28-1.477,6.31-2.177c-1.253,1.438-2.624,3.057-4.045,4.632
		c-2.499,2.771-4.224,6.283-7.908,7.914c-4.2,1.86-9.18,2.664-12.067-2.217c-1.471-2.488-2.201-4.725-1.541-7.309
		c0.606-2.375,1.704-4.625,2.586-6.93c0.188,0.064,0.374,0.128,0.563,0.191c-0.095,0.827-0.189,1.653-0.284,2.48
		c0.186,0.042,0.37,0.083,0.556,0.125c1.254-4.388,2.508-8.776,3.763-13.164c-0.148-0.062-0.296-0.123-0.443-0.185
		c-0.686,0.71-1.37,1.419-2.223,2.301c0.139-0.782,0.238-1.345,0.339-1.909c-0.128-0.089-0.255-0.177-0.383-0.267
		c-0.947,1.097-2.025,2.106-2.82,3.303c-4.74,7.135-9.466,14.281-14.083,21.495c-1.545,2.415-2.688,5.084-4.159,7.551
		c-0.488,0.82-1.425,1.374-2.341,2.219c-1.096-0.976-2.185-1.943-3.484-3.098c-0.608,0.698-1.199,1.51-1.921,2.178
		c-2.011,1.863-3.917,3.899-6.158,5.44c-3.636,2.5-6.855,1.729-10.143-1.254c-2.936-2.664-4.76-5.58-4.102-9.781
		c-0.194,0.006-0.389,0.013-0.583,0.02c-0.345,0.625-0.677,1.258-1.037,1.875c-2.675,4.587-5.229,9.251-8.071,13.732
		c-3.013,4.749-8.903,4.439-11.802-0.458c-0.347-0.587-0.667-1.189-1.103-1.97c-2.232,2.333-4.436,4.482-6.461,6.788
		c-2.975,3.388-6.702,5.033-11.135,5.055c-0.961,0.005-2.127-0.327-2.851-0.925c-2.652-2.189-5.428-4.325-7.649-6.916
		c-2.705-3.156-3.408-7.171-3.189-11.29c0.44-8.297,1.635-16.498,4.044-24.445c1.297-4.279,3.14-8.409,4.944-12.514
		c1.375-3.127,3.1-6.1,4.605-9.172C176.053,172.772,175.826,172.212,175.747,171.276z M219.652,192.086
		c-0.238-0.208-0.476-0.415-0.713-0.622c-1.256,0.968-2.625,1.82-3.747,2.924c-4.655,4.578-7.475,10.41-10.461,16.064
		c-1.985,3.758-3.375,7.844-4.849,11.852c-0.558,1.519-0.604,3.226-0.883,4.848c0.219,0.094,0.438,0.188,0.656,0.282
		c0.545-0.452,1.259-0.801,1.608-1.374c3.244-5.322,7.186-10.225,9.645-16.02c0.091-0.215,0.274-0.476,0.474-0.547
		c1.458-0.52,1.483-1.617,1.686-2.972c0.207-1.382,1.221-2.674,2.003-3.93c0.436-0.699,1.317-1.154,1.648-1.879
		c0.644-1.41,1.046-2.931,1.541-4.409C218.729,194.899,219.188,193.492,219.652,192.086z M188.997,163.714
		c-0.598,0.49-1.06,0.707-1.273,1.07c-1.646,2.791-3.642,5.461-4.77,8.455c-2.052,5.447-5.486,10.251-6.74,16.101
		c-1.003,4.681-3.008,9.146-4.523,13.722c-0.22,0.667-0.184,1.417-0.298,2.413C176.446,201.237,189.42,170.496,188.997,163.714z
		 M165.034,213.457c1.856-7.168,3.443-15.098,6.01-22.696c2.588-7.661,6.15-14.994,9.285-22.471
		c-0.913,0.503-1.837,1.12-2.236,1.979c-0.89,1.919-1.377,4.025-2.275,5.938c-4.154,8.849-7.227,18.056-9.239,27.608
		C165.86,207.226,165.466,210.705,165.034,213.457z M188.269,226.691c2.861-1.92,5.961-3.671,5.575-7.835
		C192.158,221.599,188.921,223.218,188.269,226.691z M267.875,178.287c-0.203-0.136-0.406-0.273-0.609-0.41
		c-4.153,5.479-8.308,10.958-12.461,16.436c0.149,0.11,0.298,0.22,0.448,0.331C259.46,189.192,263.667,183.74,267.875,178.287z
		 M164.624,227.06c0.169,0,0.338,0,0.507,0c-0.006-3.155-0.012-6.311-0.018-9.466c-0.162,0-0.324,0-0.485,0
		C164.625,220.749,164.625,223.905,164.624,227.06z M214.387,207.943c0.22,0.114,0.441,0.228,0.661,0.341
		c0.852-1.666,1.703-3.332,2.555-4.998c-0.188-0.095-0.374-0.188-0.562-0.283C216.156,204.649,215.271,206.296,214.387,207.943z"/>
	<path fill-rule="evenodd" clip-rule="evenodd" fill="#FFFFFF" d="M64.811,265.769c-0.93-0.445-1.762-0.606-2.228-1.106
		c-2.1-2.261-3.03-4.961-3.16-8.084c-0.518-12.414-1.137-24.824-1.781-37.232c-0.131-2.537-0.53-5.061-0.539-7.683
		c0.229,0.377,0.458,0.754,0.687,1.13c0.206-0.01,0.411-0.021,0.616-0.031c-0.08-1.898-0.159-3.796-0.241-5.74
		c-2.847,0.463-3.239,2.439-3.863,4.428c-0.783,2.497-2.032,4.845-2.854,7.332c-2.238,6.771-4.364,13.581-6.515,20.381
		c-0.353,1.117-0.423,2.359-0.942,3.382c-2.726,5.375-3.356,11.369-5.189,16.986c-1.697,5.201-3.935,10.342-6.721,15.045
		c-3.068,5.179-8.951,6.041-14.141,2.939c-0.946-0.564-2.037-0.905-2.925-1.539c-0.471-0.336-0.651-1.079-0.962-1.639
		c0.526-0.195,1.041-0.465,1.584-0.559c0.385-0.066,0.872-0.004,1.21,0.186c3.47,1.933,5.831-0.037,7.529-2.574
		c1.944-2.905,3.641-6.06,4.917-9.313c7.958-20.288,14.214-41.125,19.586-62.229c0.602-2.367,0.436-4.921,0.82-7.358
		c0.152-0.968,0.614-2.368,1.318-2.667c1.41-0.601,3.088-1.871,4.657-0.054c0.233,0.27,0.695,0.433,1.07,0.473
		c2.772,0.295,4.501,1.945,5.022,4.505c0.991,4.864,1.982,9.759,2.455,14.691c1.092,11.403,1.874,22.837,2.788,34.257
		c0.045,0.574,0.146,1.143,0.544,1.713c0.792-3.389,1.636-6.767,2.37-10.168c3.833-17.772,8.328-35.357,14.493-52.487
		c0.831-2.309,1.419-4.71,2.025-7.093c0.668-2.629,4.476-3.832,7.485-2.266c-0.51,0.768-1.019,1.533-1.527,2.298
		c0.179,0.171,0.358,0.341,0.537,0.512c0.571-0.453,1.107-0.961,1.721-1.344c0.593-0.37,1.604-1.03,1.844-0.836
		c0.858,0.694,1.635,1.62,2.087,2.62c0.181,0.4-0.433,1.629-0.909,1.781c-3.155,1.007-4.171,3.69-5.127,6.351
		c-4.349,12.091-9.248,24.032-12.751,36.366c-3.328,11.717-5.172,23.856-7.66,35.811c-0.225,1.081-0.234,2.229-0.607,3.25
		c-0.743,2.03-1.521,4.079-2.589,5.946c-0.454,0.793-1.727,1.643-2.526,1.555C65.73,267.627,65.184,266.256,64.811,265.769z
		 M72.188,234.765c0.235,0.081,0.47,0.16,0.705,0.241c0.262-0.583,0.648-1.143,0.766-1.754c0.526-2.739,0.554-5.617,2.979-7.673
		c0.54-0.458,0.606-1.506,0.827-2.3c0.554-1.992,1.027-4.007,1.614-5.988c1.334-4.502,2.67-9.006,4.097-13.48
		c1.151-3.61,2.423-7.181,3.666-10.761c1.198-3.451,2.428-6.89,3.667-10.397c-0.922,0.088-1.731,0.165-3.215,0.306
		c2.252,1.043,1.448,2.088,0.825,3.142c-0.691,1.172-1.547,2.29-2,3.551c-1.088,3.025-1.915,6.143-2.971,9.18
		c-1.278,3.677-2.691,7.307-4.033,10.962c-0.711,1.936-0.914,4.348-2.22,5.7c-1.601,1.658-1.407,3.405-1.727,5.219
		c-0.191,1.081-0.497,2.142-0.723,3.218C73.687,227.54,72.939,231.153,72.188,234.765z M35.779,251.597
		c3.745-1.976,18.396-48.471,16.964-52.972C47.031,216.462,41.405,234.03,35.779,251.597z"/>
	<path fill-rule="evenodd" clip-rule="evenodd" fill="#FFFFFF" d="M117.727,229.005c3.632-2.359,7.264-4.718,10.896-7.076
		c0.074,0.111,0.149,0.222,0.223,0.333c-1.84,1.328-3.681,2.655-5.986,4.318c1.757-0.159,2.966-0.269,4.271-0.386
		c-0.602,0.749-1.313,1.495-1.866,2.345c-2.674,4.109-6.204,7.144-10.766,9.024c-0.814,0.336-1.655,1.164-2.005,1.971
		c-1.493,3.455-2.937,6.944-4.146,10.506c-0.966,2.847-6.302,7.353-9.43,7.588c-2.779,0.209-6.889-2.704-8.411-5.901
		c-2.568-5.395-2.108-10.61,0.118-16.099c2.724-6.717,6.338-12.86,10.724-18.529c2.5-3.23,6.302-4.868,10.302-5.451
		c3.055-0.445,6.763,3.024,6.723,6.303c-0.039,3.144-0.695,6.28-1.076,9.421c-0.041,0.334-0.054,0.671-0.08,1.007
		C117.388,228.586,117.557,228.795,117.727,229.005z M105.61,239.503c-2.434-1.56-4.592-2.943-6.751-4.326
		c0.346-0.68,0.183-0.628,0.13-0.522c-2.432,4.859-3.847,9.967-3.634,15.442c0.021,0.554,0.374,1.526,0.644,1.552
		c0.593,0.057,1.377-0.21,1.828-0.624C101.61,247.558,103.698,242.986,105.61,239.503z M112.769,218.795
		c-0.364,0.02-0.556-0.028-0.622,0.042c-3.466,3.716-5.963,8.039-7.846,12.727c-0.129,0.32,0.065,0.988,0.34,1.216
		c0.968,0.801,3.926,0.262,4.418-0.896C110.825,227.729,112.646,223.571,112.769,218.795z M91.443,250.612
		c1.06-5.491,2.014-10.437,2.968-15.383c-2.017,3.872-3.571,7.901-3.896,12.281C90.447,248.421,91.054,249.381,91.443,250.612z"/>
	<path fill-rule="evenodd" clip-rule="evenodd" fill="#FFFFFF" d="M145.529,206.646c1.705-1.926,3.231-3.695,4.81-5.417
		c0.884-0.964,1.784-1.934,2.796-2.755c2.549-2.069,4.685-2.34,7.295-0.571c0.766,0.519,1.268,2.02,1.224,3.042
		c-0.224,5.304-2.463,9.702-6.563,13.094c-0.296,0.245-0.958,0.009-1.434,0.086c-0.644,0.104-1.273,0.295-2.116,0.5
		c0.978-3.14,1.968-6.319,2.958-9.499c-0.268-0.111-0.537-0.221-0.805-0.332c-11.305,13.461-19.773,28.395-23.004,45.953
		c-1.451-0.767-2.697-1.313-3.823-2.045c-2.095-1.363-3.1-3.298-2.458-5.816c0.92-3.608,1.815-7.229,2.915-10.785
		c3.015-9.748,6.15-19.458,9.193-29.197c0.653-2.09,1.875-3.27,4.12-3.418c2.17-0.145,3.963,0.581,4.705,2.593
		C145.799,203.315,145.487,204.836,145.529,206.646z M126.11,243.098c0.27,0.086,0.539,0.172,0.809,0.259
		c2.704-8.297,5.409-16.594,8.113-24.89c-0.21-0.068-0.421-0.136-0.632-0.204C130.91,226.309,128.613,234.736,126.11,243.098z
		 M135.361,229.387c-0.231-0.098-0.463-0.195-0.694-0.293c-0.28,0.336-0.685,0.628-0.821,1.016
		c-1.529,4.336-3.045,8.677-4.476,13.047c-0.157,0.48,0.24,1.142,0.38,1.72c0.139-0.012,0.278-0.024,0.417-0.037
		C131.898,239.688,133.63,234.538,135.361,229.387z M144.413,209.921c0.197,0.145,0.395,0.29,0.592,0.434
		c3.128-3.736,6.257-7.473,9.385-11.209c-0.175-0.146-0.35-0.293-0.525-0.439C150.714,202.444,147.564,206.183,144.413,209.921z"/>
</g>
<g>
	<path fill-rule="evenodd" clip-rule="evenodd" fill="#FFFFFF" d="M335.837,254.401c1.765-1.992,3.293-3.765,4.878-5.486
		c0.859-0.935,1.746-1.869,2.741-2.65c2.354-1.846,4.596-2.052,6.938-0.374c0.71,0.509,1.201,1.856,1.161,2.792
		c-0.226,5.224-2.391,9.572-6.454,12.902c-0.276,0.227-0.93-0.061-1.392,0.004c-0.628,0.088-1.238,0.285-2.017,0.473
		c0.954-2.998,1.929-6.062,2.903-9.124c-0.27-0.121-0.538-0.241-0.808-0.361c-10.951,13.057-19.194,27.524-22.307,44.616
		c-1.316-0.66-2.413-1.209-3.516-1.762c-2.872,4.593-9.029,5.109-12.942,1.197c-3.258-3.259-5.938-6.855-7.682-11.775
		c-0.623,1.094-0.988,1.67-1.29,2.277c-2.3,4.625-4.52,9.291-6.908,13.869c-1.112,2.133-2.665,3.916-5.455,3.768
		c-2.934-0.157-5.119-1.394-6.276-4.216c-0.32-0.782-0.79-1.503-1.011-1.914c-3.056,3.11-6.019,6.271-9.143,9.262
		c-2.426,2.321-5.407,2.798-8.315,1.126c-2.974-1.709-7.199-5.492-6.528-9.799c0.067-0.434-0.036-0.895-0.46-1.5
		c-0.887,1.664-1.717,3.361-2.674,4.983c-2.008,3.403-3.997,6.823-6.151,10.133c-3.002,4.611-8.643,4.44-11.452-0.334
		c-0.792-1.346-1.872-2.543-1.199-4.56c1.131-3.39,1.188-7.228,2.723-10.375c2.472-5.069,3.037-10.957,6.958-15.412
		c2.587-2.939,4.608-6.371,7.138-9.365c2.489-2.946,5.928-2.693,8.746-0.011c1.007,0.959,2.566,1.459,3.963,1.863
		c2.483,0.719,4.085,3.065,3.633,5.55c-1.272,6.983-2.518,13.973-3.728,20.967c-0.115,0.669,0.098,1.396,0.158,2.094
		c0.746-0.152,1.684-0.071,2.207-0.498c2.538-2.07,4.967-4.274,7.433-6.434c0.71-0.621,1.171-1.594,2.518-0.973
		c0.399,0.184,1.298-0.716,2.043-1.164c0.133,0.18,0.335,0.454,0.894,1.211c0.136-0.617,0.215-0.942,0.277-1.271
		c0.549-2.885,0.948-5.808,1.691-8.642c0.514-1.956,1.539-3.772,2.267-5.678c0.603-1.578,0.906-3.301,1.688-4.775
		c2.059-3.883,4.109-7.799,6.539-11.45c2.099-3.155,6.927-4.021,10.357-2.354c0.23,0.112,0.494,0.152,0.871,0.265
		c0.269-0.484,0.6-0.91,0.759-1.395c1.236-3.759,2.876-7.457,3.523-11.319c0.593-3.539,2.896-6.301,3.398-9.855
		c0.493-3.49,1.806-6.861,2.709-10.298c0.477-1.811,0.791-3.665,1.28-5.471c0.604-2.229,1.676-2.586,3.283-1.224
		c0.228,0.192,0.66,0.415,0.862,0.323c1.884-0.848,2.117,0.492,2.509,1.767c0.979,3.186,0.294,6.273-0.669,9.272
		c-3.83,11.938-8.26,23.692-10.848,36.008c-0.813,3.868-1.553,7.672-1.419,11.713c0.087,2.602,0.222,5.133,0.792,7.652
		c0.335,1.477,0.857,3.213,2.517,3.244c1.289,0.025,2.698-0.849,3.864-1.613c0.915-0.599,1.249-2.071,2.91-1.386
		c0.237,0.097,1.388-1.272,1.657-2.11c2.83-8.807,5.581-17.639,8.321-26.474c0.991-3.198,1.917-6.416,2.828-9.638
		c0.584-2.06,1.851-3.156,4.023-3.293c2.113-0.133,3.846,0.602,4.55,2.558C336.141,251.162,335.816,252.636,335.837,254.401z
		 M235.817,311.079c0.243,0.112,0.485,0.226,0.728,0.34c0.545-0.524,1.231-0.962,1.615-1.585c3.138-5.098,6.887-9.83,9.25-15.394
		c0.082-0.194,0.381-0.288,0.491-0.479c0.521-0.912,1.032-1.831,1.508-2.768c0.651-1.279,0.975-3.332,1.958-3.713
		c2.333-0.9,1.206-3.506,2.877-4.613c0.492-0.326,0.403-1.51,0.606-2.295c0.31-1.199,0.643-2.393,0.965-3.588
		c-0.173-0.162-0.347-0.326-0.521-0.488c-1.184,0.848-2.576,1.512-3.52,2.574c-7.145,8.043-11.855,17.462-15.204,27.603
		C236.11,308.072,236.059,309.606,235.817,311.079z M282.05,298.936c7.713-10.13,10.989-21.938,16.037-33.352
		C291.281,268.871,279.623,292.885,282.05,298.936z M318.768,283.42c0.184,0.074,0.368,0.148,0.553,0.222
		c3.094-5.581,4.239-11.833,6.257-17.784c-0.255-0.088-0.51-0.176-0.766-0.264C322.797,271.536,320.782,277.479,318.768,283.42z
		 M301.398,285.467c0.832-6.214,1.732-12.946,2.586-19.326C301.702,270.222,300.226,281.701,301.398,285.467z M334.797,257.539
		c0.196,0.138,0.393,0.274,0.589,0.412c3.024-3.63,6.047-7.26,9.071-10.889c-0.166-0.138-0.332-0.276-0.498-0.415
		C340.905,250.278,337.851,253.909,334.797,257.539z M305.941,248.438c0.301,0.076,0.601,0.153,0.901,0.23
		c0.503-1.617,1.006-3.235,1.509-4.852c-0.281-0.081-0.563-0.162-0.845-0.243C306.985,245.194,306.464,246.816,305.941,248.438z
		 M250.769,292.446c0.212,0.118,0.424,0.236,0.636,0.354c0.833-1.623,1.665-3.247,2.498-4.871c-0.182-0.094-0.365-0.187-0.547-0.28
		C252.493,289.248,251.631,290.848,250.769,292.446z M323.507,279.293c1.996-0.26,2.462-1.148,1.769-3.441
		C324.641,277.086,324.147,278.046,323.507,279.293z"/>
	<path fill-rule="evenodd" clip-rule="evenodd" fill="#FFFFFF" d="M408.188,237.944c-3.252-1.292-4.997,0.672-7.17,2.164
		c-5.424,3.723-9.504,8.504-12.239,14.386c-2.006,4.313-3.626,8.805-5.377,13.232c-0.195,0.494-0.119,1.096,0.285,1.899
		c0.532-0.436,1.115-0.821,1.587-1.313c6.098-6.385,10.374-14.006,14.577-21.664c0.698-1.272,0.912-2.802,1.445-4.175
		c0.887-2.284,1.966-2.591,4.035-1.244c0.156,0.102,0.361,0.273,0.498,0.238c2.875-0.753,3.199,1.371,3.665,3.27
		c1.31,5.346,0.568,10.664-0.313,15.968c-0.434,2.598-0.298,2.909,2.187,3.611c-0.093,0.46-0.188,0.93-0.371,1.839
		c2.402-1.333,4.017-0.659,5.216,1.231c0.955,1.506,0.474,2.391-1.329,2.463c-4.46,0.177-8.192,3.08-9.189,7.373
		c-3.764,16.203-10.456,31.275-17.77,46.101c-1.695,3.435-3.827,6.64-7.098,8.869c-4.954,3.377-11.967,1.028-13.711-4.707
		c-0.838-2.755-1.759-5.609-1.824-8.438c-0.056-2.373,0.894-4.837,1.716-7.148c2.745-7.724,6.716-14.758,12.091-20.993
		c6.054-7.021,12.495-13.637,19.698-19.492c0.765-0.621,1.356-1.455,1.442-2.24c-0.033-1.059-0.15-2.123-0.086-3.176
		c0.17-2.837,0.418-5.67,0.675-9.021c-0.604,0.717-0.95,0.966-1.07,1.296c-2.188,5.993-6.502,10.617-10.172,15.633
		c-2.203,3.01-5.384,3.574-8.844,2.154c-0.863-0.355-1.681-0.82-2.722-1.335c-1.544,2.017-3.015,4.098-4.664,6.026
		c-0.741,0.866-1.838,1.43-2.775,2.13c-0.796,0.595-1.646,1.128-2.384,1.789c-3.99,3.575-8.909,3.319-12.37-0.677
		c-0.175-0.201-0.355-0.576-0.529-0.574c-2.339,0.033-2.638-1.975-3.101-3.436c-0.509-1.6-0.869-3.494-0.509-5.082
		c1.85-8.159,3.947-16.262,5.969-24.381c0.34-1.365,0.828-2.702,1.061-4.083c0.202-1.202,0.382-2.398,1.862-2.362
		c1.207,0.029,2.721,0.04,3.553,0.723c3.379,2.779,3.45,3.861,2.083,8.108c-2.38,7.393-4.688,14.809-6.87,22.262
		c-0.528,1.804-0.507,3.785-0.568,5.69c-0.008,0.264,1.09,0.905,1.468,0.774c1.189-0.412,2.387-0.967,3.388-1.723
		c3.736-2.822,7.404-5.736,11.07-8.652c0.384-0.305,0.678-0.805,0.856-1.273c2.188-5.737,4.357-11.48,6.502-17.234
		c0.316-0.851,0.496-1.754,0.711-2.64c0.059-0.24-0.083-0.641,0.042-0.734c2.827-2.121,3.451-5.593,5.191-8.375
		c3.406-5.446,8.436-8.059,14.788-8.005C405.683,233.021,407.361,234.604,408.188,237.944z M396.509,282.656
		c-0.172-0.133-0.342-0.265-0.514-0.396c-0.502,0.375-1.063,0.691-1.495,1.136c-2.195,2.258-4.432,4.484-6.514,6.845
		c-2.695,3.054-5.394,6.123-7.849,9.368c-3.972,5.25-6.355,11.345-8.292,17.549c-0.876,2.808-0.924,5.916-1.045,8.9
		c-0.066,1.634,0.855,2.007,2.237,1.05c1.259-0.871,2.341-1.996,3.525-2.979c0.513-0.426,1.087-0.776,1.634-1.161
		c0.188,0.192,0.377,0.386,0.565,0.579c-1.656,1.871-3.313,3.743-4.968,5.614c0.172,0.175,0.345,0.349,0.517,0.522
		c0.846-0.594,1.965-1.01,2.489-1.813c2.3-3.529,4.458-7.153,6.571-10.799c0.2-0.346-0.274-1.083-0.356-1.362
		C388.002,304.836,392.592,293.885,396.509,282.656z M398.839,275.846c-0.129-0.195-0.258-0.39-0.386-0.584
		c-1.004,0.547-2.099,0.979-2.991,1.67c-1.193,0.924-1.52,2.838-3.533,2.912c-0.409,0.016-0.709,1.028-1.193,1.411
		c-1.214,0.959-2.72,1.646-2.766,3.527c-0.002,0.071-0.49,0.084-0.705,0.206c-0.776,0.444-1.658,0.8-2.269,1.418
		c-0.981,0.996-1.768,2.182-2.656,3.271c-2.032,2.49-4.426,4.764-6.027,7.504c-2.065,3.532-3.521,7.425-5.189,11.183
		c-0.348,0.784-0.485,1.662-0.72,2.498c0.166,0.063,0.332,0.128,0.498,0.191C376.77,296.588,387.457,285.941,398.839,275.846z
		 M398.961,285.612c-0.171-0.09-0.343-0.179-0.514-0.269c-4.155,10.586-8.311,21.17-12.467,31.754c0.205,0.08,0.411,0.16,0.616,0.24
		C391.399,307.031,395.459,296.432,398.961,285.612z M356.812,262.789c-2.123,3.444-3.45,13.895-2,15.273
		C355.475,272.994,356.148,267.849,356.812,262.789z M374.478,274.538c-0.966,0.981-1.845,1.874-2.724,2.767
		c0.149,0.182,0.298,0.363,0.447,0.545c1.842-1.192,3.686-2.385,5.556-3.595c-0.625-0.944-1.124-1.698-1.782-2.692
		c-0.925,0.982-1.697,1.805-2.56,2.723C373.906,274.402,374.138,274.457,374.478,274.538z"/>
	<path fill-rule="evenodd" clip-rule="evenodd" fill="#FFFFFF" d="M187.911,275.619c-0.095-0.979-0.189-1.958-0.319-3.302
		c-0.461,0.47-0.748,0.644-0.863,0.896c-6.521,14.258-12.933,28.569-19.58,42.77c-3.094,6.61-6.435,13.126-10.047,19.466
		c-3.105,5.449-9.229,4.442-12.927,1.563c-0.463-0.361-0.666-1.059-0.989-1.601c0.594-0.19,1.297-0.69,1.766-0.525
		c3.475,1.221,5.229-1.027,6.571-3.444c2.897-5.217,5.537-10.575,8.278-15.879c2.524-4.885,5.009-9.791,7.582-14.65
		c0.91-1.72,2.14-3.272,3.011-5.009c0.628-1.25,0.808-2.719,1.36-4.017c0.748-1.756,1.687-3.43,2.5-5.159
		c1.313-2.794,2.592-5.604,3.882-8.409c0.529-1.151,1.137-2.277,1.542-3.472c0.333-0.983,0.26-2.117,0.654-3.064
		c0.669-1.609,1.587-3.115,2.358-4.686c0.746-1.522,1.536-3.035,2.131-4.617c1.029-2.736,1.585-5.716,3.018-8.204
		c0.685-1.19,2.919-1.495,4.459-2.184c1.514-0.678,2.873-0.294,4.156,0.627c1.638,1.177,1.973,2.764,1.449,4.735
		c-3.735,14.062-7.456,28.127-11.032,42.229c-0.646,2.549-0.607,5.272-0.456,8.138c0.514-0.696,1.13-1.338,1.526-2.096
		c7.894-15.123,15.639-30.322,23.683-45.364c4.647-8.688,9.742-17.139,14.691-25.664c1.244-2.142,3.684-2.587,5.986-1.3
		c2.441,1.365,2.906,2.759,1.802,5.302c-3.244,7.467-5.707,15.179-7.494,23.127c-2.618,11.645-5.542,23.221-8.031,34.891
		c-1.537,7.202-2.614,14.511-3.66,21.806c-0.251,1.752,0.446,3.64,0.702,5.466c0.111,0.789,0.506,2.145,0.263,2.272
		c-0.987,0.517-2.259,1.054-3.259,0.831c-1.133-0.252-2.088-1.309-2.839-1.821c-0.85-0.217-1.895-0.273-1.948-0.531
		c-0.236-1.161-3.073-0.976-1.527-2.988c0.258-0.336,0.314-0.864,0.37-1.315c2.625-21.301,7.265-42.125,14.611-62.322
		c0.619-1.701,0.838-3.547,1.243-5.326c-0.169-0.038-0.339-0.077-0.508-0.115c-1.218,1.866-2.623,3.638-3.625,5.613
		c-6.288,12.398-12.5,24.834-18.707,37.272c-2.278,4.564-4.478,9.169-6.704,13.759c-1.072,2.211-2.702,3.784-4.628,5.372
		c-1.95,1.607-3.331,1.855-5.431,0.799c-0.696-0.351-1.615,0.492-2.527-0.658c-1.214-1.53-1.459-2.789-1.072-4.699
		c0.876-4.324,1.167-8.767,2.031-13.093c0.833-4.168,2.087-8.252,3.156-12.373c0.244,0.051,0.489,0.102,0.733,0.152
		c-0.641,2.678-1.382,5.334-1.896,8.035c-0.551,2.893-0.951,5.818-1.301,8.743c-0.335,2.804-0.521,5.627-0.773,8.44
		c0.182,0.022,0.363,0.046,0.545,0.068c0.108-0.229,0.306-0.455,0.312-0.687c0.31-12.045,4.413-23.368,6.469-35.166
		c-0.255,0.444-0.51,0.89-0.766,1.334L187.911,275.619z M187.298,265.598c-7.6,15.986-16.196,31.51-22.245,48.217
		C173.491,298.217,180.515,281.963,187.298,265.598z M222.433,266.261c-0.215-0.038-0.43-0.077-0.645-0.116
		c-4.07,17.125-7.485,34.38-10.479,51.72c0.263,0.053,0.525,0.105,0.788,0.158C215.542,300.769,218.987,283.515,222.433,266.261z
		 M221.909,247.205c-6.336,10.617-12.108,21.524-17.109,32.826C211.115,269.402,216.651,258.375,221.909,247.205z M214.001,292.451
		c-0.271-0.051-0.543-0.1-0.814-0.15c-1.746,8.734-3.492,17.468-5.238,26.201c0.369,0.071,0.737,0.143,1.106,0.214
		C210.704,309.961,212.353,301.206,214.001,292.451z M216.089,282.289c-0.235-0.049-0.471-0.1-0.706-0.15
		c-0.598,2.787-1.196,5.572-1.794,8.359c0.24,0.051,0.479,0.102,0.719,0.152C214.902,287.864,215.496,285.077,216.089,282.289z
		 M215.034,257.416c-0.182-0.113-0.365-0.225-0.547-0.338c-1.403,2.48-2.806,4.961-4.209,7.441c0.214,0.121,0.428,0.24,0.642,0.36
		C212.291,262.392,213.663,259.904,215.034,257.416z"/>
	<path fill-rule="evenodd" clip-rule="evenodd" fill="#FFFFFF" d="M495.205,236.151c-0.275,0.688-0.409,1.485-0.85,2.042
		c-1.666,2.103-3.468,4.098-5.139,6.197c-0.563,0.708-0.885,1.607-1.071,2.558c3.995-2.282,6.745-5.547,8.479-9.713
		c0.114,3.408-0.998,6.485-3.063,9.023c-2.57,3.157-5.392,6.141-8.351,8.94c-2.48,2.347-5.728,3.208-9.113,3.119
		c-0.98-0.025-2.119-0.514-2.882-1.152c-2.662-2.229-5.19-4.617-7.803-6.974c-1.827,2.501-3.433,5.238-5.565,7.47
		c-2.281,2.389-4.923,4.504-7.666,6.354c-2.161,1.458-4.638,0.286-6.409-0.958c-1.957-1.375-3.651-3.362-4.899-5.422
		c-0.86-1.423-0.77-3.423-1.179-5.558c-0.423,0.733-0.749,1.304-1.08,1.873c-2.6,4.455-5.11,8.966-7.823,13.351
		c-3.705,5.986-8.877,3.356-11.618-0.61c-2.63-3.806-0.592-7.683,0.464-11.392c1.07-3.765,2.536-7.427,3.987-11.072
		c0.84-2.104,1.765-4.245,3.053-6.088c2.631-3.759,5.405-7.436,8.361-10.942c2.39-2.834,5.933-2.525,8.62,0.044
		c1.038,0.993,2.678,1.484,4.132,1.884c2.234,0.616,3.926,3.144,3.491,5.531c-1.258,6.919-2.512,13.838-3.701,20.769
		c-0.131,0.767,0.162,1.605,0.259,2.411c0.807-0.232,1.795-0.243,2.387-0.733c2.472-2.05,4.785-4.291,7.249-6.351
		c0.582-0.487,1.548-0.49,2.291-0.819c0.707-0.314,1.354-0.763,1.821-1.033c0.624,0.075,1.302,0.362,1.578,0.143
		c0.479-0.38,1.109-1.185,0.988-1.619c-2.487-8.913-0.302-17.526,1.554-26.164c0.211-0.983,0.297-2.01,0.636-2.945
		c1.753-4.848,3.442-9.725,5.41-14.486c1.267-3.063,2.997-5.932,4.457-8.917c0.169-0.346-0.069-0.89-0.164-1.766
		c1.698-1.155,2.524-3.271,3.181-5.755c0.56-2.111,2.078-4.052,3.462-5.844c2.964-3.837,8.145-2.962,9.963,1.569
		c0.974,2.429,0.675,4.868,0.075,7.317c-2.296,9.374-5.673,18.328-10.383,26.765c-2.095,3.752-4.136,7.536-6.323,11.233
		c-0.908,1.533-1.999,3.042-4.216,2.848c-0.268-0.024-0.857,0.677-0.863,1.049c-0.078,4.927-0.088,9.855-0.087,14.784
		c0,0.597,0.178,1.193,0.245,1.792c0.262,2.321,2.014,3.588,4.36,3.159c3.209-0.587,6.015-2.119,8.254-4.352
		c3.219-3.21,6.129-6.73,9.165-10.124c0.519-0.58,1.006-1.187,1.508-1.781C494.66,235.92,494.933,236.036,495.205,236.151z
		 M424.203,265.972c0.618-0.688,1.349-1.306,1.835-2.077c2.124-3.367,4.143-6.801,6.277-10.162c0.596-0.937,1.656-1.605,2.139-2.578
		c0.53-1.068,0.229-2.467,1.801-3.091c0.496-0.197,0.509-1.506,0.832-2.267c0.559-1.313,0.902-3.401,1.844-3.736
		c2.393-0.849,1.221-3.522,2.945-4.604c0.525-0.33,0.437-1.627,0.646-2.478c0.291-1.18,0.6-2.356,0.934-3.661
		C437,232.631,422.827,257.598,424.203,265.972z M489.215,186.321c-0.173-0.112-0.348-0.225-0.521-0.337
		c-0.337,0.278-0.783,0.49-0.991,0.843c-1.598,2.712-3.533,5.306-4.631,8.213c-1.996,5.288-5.324,9.959-6.546,15.638
		c-0.978,4.546-2.922,8.883-4.392,13.328c-0.214,0.645-0.176,1.374-0.255,2.063c0.197,0.054,0.396,0.109,0.592,0.163
		C479.594,213.579,486.453,200.813,489.215,186.321z M480.837,190.446c-0.17-0.131-0.339-0.262-0.509-0.393
		c-0.675,0.696-1.589,1.28-1.977,2.11c-0.869,1.861-1.349,3.903-2.212,5.768c-4.99,10.77-8.524,21.969-10.137,33.748
		c-0.142,1.035-0.197,2.081-0.294,3.121c0.182,0.031,0.362,0.062,0.543,0.093C467.589,218.915,473.729,204.521,480.837,190.446z
		 M465.76,238.147c-0.164,0.016-0.329,0.031-0.494,0.047c0.002,2.756,0.004,5.513,0.006,8.269c0.155-0.001,0.312-0.002,0.468-0.003
		C465.746,243.688,465.753,240.917,465.76,238.147z M441.557,242.48c-0.206-0.096-0.41-0.192-0.615-0.289
		c-0.85,1.602-1.699,3.204-2.548,4.806c0.206,0.102,0.413,0.204,0.619,0.306C439.861,245.695,440.708,244.087,441.557,242.48z"/>
	<path fill-rule="evenodd" clip-rule="evenodd" fill="#FFFFFF" d="M373.984,221.903c-0.516,1.4-0.754,2.367-1.209,3.217
		c-1.229,2.303-2.621,4.521-3.812,6.844c-0.764,1.492-1.711,2.345-3.469,1.967c-1.718-0.369-3.713-2.122-3.542-3.599
		c0.357-3.08,0.702-6.225,1.635-9.157c0.917-2.882,2.942-3.713,5.748-2.575C371.015,219.281,372.381,220.729,373.984,221.903z"/>
	<path fill-rule="evenodd" clip-rule="evenodd" fill="#FFFFFF" d="M187.839,275.585c-0.559,2.303-1.118,4.606-1.678,6.909
		c-0.167-0.047-0.333-0.094-0.5-0.141c0.29-2.377,0.564-4.758,2.248-6.734C187.911,275.619,187.839,275.585,187.839,275.585z"/>
</g>
<text transform="matrix(0.8387 0 0 1 79.7412 388.6602)" fill="#FFFFFF" font-family="'MyriadPro-Regular'" font-size="34.5527">Diseño Gráfico &amp; Diseño Web</text>
</svg>
